<?xml version="1.0" standalone="no"?>
<!DOCTYPE svg PUBLIC "-//W3C//DTD SVG 20010904//EN"
 "http://www.w3.org/TR/2001/REC-SVG-20010904/DTD/svg10.dtd">
<svg version="1.0" xmlns="http://www.w3.org/2000/svg"
 width="1423.000000pt" height="1423.000000pt" viewBox="0 0 1423.000000 1423.000000"
 preserveAspectRatio="xMidYMid meet">
<metadata>
Created by potrace 1.14, written by Peter Selinger 2001-2017
</metadata>
<g transform="translate(0.000000,1423.000000) scale(0.100000,-0.100000)"
fill="#000000" stroke="none">
<path d="M8965 9040 c-112 -17 -224 -107 -264 -213 -26 -69 -23 -192 6 -257
87 -192 316 -261 494 -149 104 66 162 183 154 311 -13 193 -196 337 -390 308z"/>
<path d="M10365 8994 c-215 -38 -380 -151 -457 -314 -49 -103 -56 -147 -58
-360 0 -101 -2 -186 -4 -188 -2 -1 -46 -3 -97 -4 -188 -2 -264 -52 -273 -176
-4 -63 17 -132 51 -164 36 -34 111 -55 198 -56 39 0 82 -1 98 -1 l27 -1 0
-777 c0 -867 -1 -853 67 -933 41 -47 78 -69 148 -85 119 -28 251 7 317 84 69
81 68 65 68 934 0 615 3 777 13 777 6 0 73 2 147 4 149 3 204 18 252 67 49 51
58 152 20 228 -13 26 -34 44 -77 66 -62 31 -46 29 -338 35 -18 0 -19 10 -15
158 3 138 5 160 23 184 35 48 72 56 205 46 97 -8 167 31 205 114 51 109 5 243
-107 314 -83 53 -266 74 -413 48z"/>
<path d="M7956 8971 c-72 -24 -126 -74 -157 -145 l-22 -51 -1 -1304 c-1 -1233
0 -1308 17 -1364 35 -113 135 -178 276 -180 130 -2 222 48 271 146 l30 60 0
1316 c0 1459 4 1367 -65 1449 -50 57 -113 84 -210 88 -60 3 -95 -1 -139 -15z"/>
<path d="M3120 8200 c-38 -13 -66 -31 -93 -61 -71 -80 -68 -41 -68 -1065 0
-827 1 -920 16 -968 36 -115 121 -169 270 -173 121 -3 184 16 240 72 80 80 79
69 81 735 1 572 2 586 23 648 66 191 231 319 423 326 221 9 363 -110 394 -330
4 -27 7 -319 8 -649 l2 -600 23 -53 c29 -63 88 -117 151 -137 69 -21 234 -14
286 13 58 30 101 78 125 141 20 54 20 72 20 731 0 601 -2 724 -15 780 -1 8 -6
33 -10 55 -10 51 -53 169 -80 215 -96 169 -262 280 -486 326 -65 13 -301 13
-365 -1 -72 -15 -200 -66 -267 -106 -79 -48 -188 -145 -250 -222 l-38 -49 -1
54 c-4 149 -29 221 -98 280 -69 59 -187 74 -291 38z"/>
<path d="M6300 8217 c-3 -2 -34 -7 -70 -11 -36 -3 -74 -8 -85 -10 -401 -84
-664 -301 -802 -661 -58 -149 -77 -268 -78 -470 0 -199 5 -250 41 -375 99
-341 331 -585 662 -694 146 -48 216 -59 422 -62 157 -2 216 1 302 16 274 49
523 172 623 308 62 84 85 184 61 265 -31 105 -122 175 -233 179 -88 3 -155
-32 -282 -148 -42 -39 -166 -111 -201 -117 -14 -3 -45 -10 -70 -17 -60 -17
-251 -17 -320 0 -224 54 -375 234 -396 471 l-6 67 713 0 c393 1 733 3 757 6
63 8 122 44 146 91 17 32 21 61 23 150 5 261 -91 504 -276 698 -128 135 -352
251 -562 292 -80 16 -358 33 -369 22z m220 -432 c194 -34 355 -198 404 -412
l14 -63 -534 0 c-294 0 -534 4 -534 8 0 17 31 111 45 139 8 15 15 31 15 35 0
12 55 94 86 130 32 36 107 98 120 98 4 0 15 6 23 13 58 47 241 73 361 52z"/>
<path d="M8914 8162 c-88 -30 -133 -76 -158 -162 -14 -47 -16 -156 -16 -951 0
-801 2 -902 16 -947 22 -66 62 -114 121 -143 41 -20 64 -23 158 -23 91 -1 118
3 155 20 79 37 122 95 139 191 5 26 8 446 7 933 -1 721 -4 893 -15 928 -19 57
-71 115 -128 143 -64 31 -204 36 -279 11z"/>
<path d="M11755 8159 c-122 -22 -114 -20 -170 -38 -207 -65 -396 -201 -518
-372 -82 -116 -164 -311 -183 -439 -3 -19 -7 -41 -9 -48 -8 -22 -18 -163 -18
-242 0 -162 33 -339 83 -455 109 -252 270 -422 503 -529 70 -32 232 -83 297
-92 157 -24 422 -23 510 1 8 2 31 7 50 10 87 15 257 68 315 99 17 9 34 16 38
16 16 0 144 91 186 132 118 117 148 274 73 379 -74 102 -210 136 -321 79 -22
-11 -70 -46 -108 -78 -37 -32 -88 -73 -112 -90 -125 -90 -357 -122 -533 -74
-71 20 -92 29 -173 77 -43 25 -124 123 -151 183 -28 61 -54 168 -54 223 l0 39
718 1 c394 1 729 3 744 4 14 2 44 13 66 24 60 30 85 89 87 204 5 260 -88 497
-269 685 -143 149 -318 244 -540 293 -135 30 -366 34 -511 8z m377 -414 c189
-49 327 -206 373 -422 5 -24 3 -33 -7 -34 -7 -1 -244 -2 -525 -3 -397 -1 -513
2 -513 11 0 7 7 34 16 60 69 205 178 322 354 379 84 27 214 31 302 9z"/>
<path d="M2122 7992 c-35 -37 -113 -117 -173 -178 l-110 -111 28 -18 c93 -57
171 -204 203 -378 18 -98 20 -117 25 -257 10 -316 -86 -519 -295 -625 -193
-98 -430 -58 -563 95 -66 76 -131 213 -152 320 -3 14 -8 40 -11 58 -3 17 -8
32 -10 32 -3 0 -127 -126 -344 -350 -61 -63 -115 -122 -120 -131 -21 -36 122
-226 230 -306 149 -111 351 -188 548 -210 127 -15 410 -8 502 11 267 56 466
180 621 386 72 96 163 305 184 425 45 253 31 514 -37 725 -73 224 -221 431
-391 545 -28 19 -56 35 -62 35 -5 -1 -38 -31 -73 -68z"/>
<path d="M13492 6598 c-151 -61 -239 -226 -206 -384 17 -79 37 -117 95 -174
135 -134 369 -123 493 22 91 106 105 282 31 398 -66 102 -155 152 -280 157
-64 2 -91 -1 -133 -19z"/>
<path d="M727 5705 c-81 -28 -128 -101 -133 -205 -8 -168 130 -277 285 -225
93 31 143 105 144 215 1 170 -139 272 -296 215z m136 -76 c78 -35 84 -228 8
-268 -37 -20 -87 -20 -120 0 -82 50 -79 226 4 268 27 13 79 13 108 0z"/>
<path d="M7111 5680 c-4 -3 -7 -23 -7 -45 1 -36 -1 -40 -26 -43 -24 -3 -28 -8
-28 -33 0 -18 5 -29 13 -28 41 5 42 3 43 -111 0 -133 6 -142 93 -148 l59 -4 0
36 c0 33 -2 36 -29 36 -34 0 -38 13 -36 120 l2 74 30 1 c25 0 31 4 33 28 3 25
1 27 -33 27 -32 0 -36 3 -35 23 6 65 2 73 -35 73 -20 0 -39 -3 -44 -6z"/>
<path d="M1835 5574 c-33 -22 -35 -23 -35 -4 0 17 -7 20 -40 20 l-40 0 0 -159
0 -160 43 2 42 2 2 85 c1 47 2 95 3 108 0 29 34 62 63 62 47 0 57 -27 57 -148
l0 -111 45 1 46 1 -2 122 c-2 169 -15 195 -107 200 -31 2 -51 -3 -77 -21z"/>
<path d="M2463 5583 c-65 -33 -93 -82 -93 -158 0 -51 16 -89 52 -121 71 -65
201 -45 243 37 l16 29 -37 0 c-21 0 -46 -8 -61 -20 -47 -37 -123 -15 -123 36
l0 24 114 0 114 0 -5 38 c-12 91 -63 144 -144 148 -27 1 -60 -5 -76 -13z m103
-61 c16 -10 35 -50 27 -55 -5 -2 -37 -3 -73 -2 -69 2 -76 10 -43 48 16 17 69
23 89 9z"/>
<path d="M3233 5575 c-74 -45 -99 -148 -57 -229 50 -97 202 -110 266 -22 l30
41 -36 3 c-25 2 -44 -3 -62 -17 -36 -28 -79 -27 -109 4 -49 48 -37 55 91 55
l117 0 -5 45 c-14 117 -136 179 -235 120z m129 -62 c10 -9 18 -23 18 -32 0
-14 -12 -17 -67 -16 -62 1 -68 2 -65 20 7 44 78 61 114 28z"/>
<path d="M3740 5593 c-8 -3 -27 -16 -41 -30 l-27 -24 2 23 c1 20 -4 23 -41 26
l-43 3 0 -159 0 -159 43 0 44 0 1 84 c0 47 6 97 12 113 11 26 53 54 76 49 26
-5 33 4 32 39 0 31 -4 38 -22 39 -11 1 -28 -1 -36 -4z"/>
<path d="M4685 5593 c-11 -3 -30 -14 -42 -26 l-23 -20 0 22 c0 20 -4 22 -42
19 l-41 -3 1 -140 c0 -77 1 -148 1 -157 1 -13 10 -17 41 -16 22 0 40 3 41 7 1
3 2 52 3 109 2 89 5 106 23 123 16 16 28 20 52 14 36 -8 33 0 37 -130 1 -55 3
-105 3 -112 1 -12 80 -16 82 -4 1 3 2 52 3 108 3 112 16 143 62 143 42 0 54
-34 54 -152 l0 -108 43 3 42 2 2 112 c1 62 -2 125 -6 140 -17 65 -118 92 -177
47 -31 -23 -31 -23 -51 -3 -20 20 -73 31 -108 22z"/>
<path d="M5248 5587 c-91 -43 -126 -153 -75 -241 57 -101 211 -109 278 -15 20
28 24 46 24 101 0 71 -14 102 -66 140 -31 24 -124 32 -161 15z m108 -65 c21
-14 34 -51 34 -97 0 -54 -32 -95 -75 -95 -44 0 -75 41 -75 98 0 64 28 102 73
102 18 0 37 -4 43 -8z"/>
<path d="M5753 5592 c-13 -4 -32 -15 -43 -24 -26 -23 -29 -23 -23 2 5 18 0 20
-38 20 l-44 0 0 -158 0 -159 43 -2 c27 -1 42 3 43 11 0 7 0 53 0 101 -2 110
15 146 65 147 39 0 48 -25 50 -138 1 -59 2 -110 3 -113 1 -4 19 -7 41 -7 45
-1 44 -5 41 133 -2 72 14 113 45 121 58 15 70 -12 69 -147 -1 -108 0 -109 59
-106 l29 2 -1 127 c-1 99 -5 133 -17 152 -20 30 -60 47 -100 42 -16 -2 -35 -4
-41 -5 -5 0 -21 -11 -34 -23 -16 -15 -25 -18 -28 -10 -5 16 -56 42 -79 41 -10
-1 -28 -4 -40 -7z"/>
<path d="M6300 5577 c-110 -58 -113 -235 -4 -291 80 -42 175 -19 217 53 l18
31 -36 0 c-22 0 -47 -8 -62 -20 -47 -37 -112 -18 -128 38 -6 22 -6 22 109 22
l116 0 0 32 c0 55 -38 118 -84 139 -55 25 -94 24 -146 -4z m122 -64 c10 -9 18
-23 18 -32 0 -14 -12 -16 -67 -16 -73 0 -84 9 -53 43 25 26 75 29 102 5z"/>
<path d="M6769 5578 c-36 -22 -43 -22 -35 -3 4 12 -4 15 -39 15 l-45 0 0 -160
0 -159 45 1 45 1 0 108 c0 96 2 111 20 129 35 35 99 17 101 -28 0 -9 1 -60 2
-112 l2 -94 43 -4 42 -3 0 121 c0 145 -12 182 -62 199 -44 14 -83 11 -119 -11z"/>
<path d="M1126 5568 c3 -13 26 -84 50 -160 l44 -136 45 0 c44 0 45 0 56 41 13
50 15 57 31 122 l12 50 18 -65 c48 -161 38 -145 88 -147 l45 -1 44 141 c24 78
46 150 49 160 4 14 -3 17 -40 17 l-45 0 -18 -67 c-9 -38 -23 -86 -30 -108
l-13 -40 -7 30 c-45 195 -40 185 -89 185 l-42 0 -19 -77 c-10 -43 -20 -87 -22
-98 -6 -33 -23 -42 -23 -12 0 14 -4 36 -9 49 -6 13 -17 49 -26 81 l-16 57 -45
0 c-42 0 -45 -1 -38 -22z"/>
<path d="M2816 5434 c29 -86 54 -157 54 -158 0 -1 23 -3 50 -3 28 -1 50 -1 50
1 0 2 24 74 54 160 l54 156 -44 0 -43 0 -35 -107 c-19 -60 -36 -101 -39 -93
-3 8 -18 57 -34 107 l-28 93 -47 0 -47 0 55 -156z"/>
<path d="M3896 5548 c16 -45 70 -189 84 -223 26 -62 18 -88 -27 -91 -15 -1
-31 -3 -35 -3 -5 -1 -8 -17 -8 -36 0 -35 0 -35 45 -35 60 0 99 21 115 62 7 18
19 47 26 63 7 17 32 84 57 150 24 66 48 128 52 138 7 16 3 18 -41 15 l-49 -3
-29 -97 c-17 -54 -33 -98 -38 -98 -4 0 -11 12 -14 28 -4 15 -10 32 -14 37 -3
6 -15 38 -25 73 l-18 62 -48 0 -48 0 15 -42z"/>
<path d="M7403 5362 c-6 -4 -16 -20 -22 -34 -9 -24 -7 -30 16 -48 15 -11 33
-18 41 -15 7 3 17 5 22 5 11 0 25 40 21 60 -5 31 -50 50 -78 32z"/>
</g>
</svg>
